<svg id="visual" viewBox="0 0 900 600" width="900" height="600" xmlns="http://www.w3.org/2000/svg" xmlns:xlink="http://www.w3.org/1999/xlink" version="1.1"><rect x="0" y="0" width="900" height="600" fill="#fff"></rect><path d="M750 600L724.5 585.7C699 571.3 648 542.7 651.5 514.2C655 485.7 713 457.3 711.8 428.8C710.7 400.3 650.3 371.7 651.3 343C652.3 314.3 714.7 285.7 715.8 257C717 228.3 657 199.7 626.2 171.2C595.3 142.7 593.7 114.3 621.8 85.8C650 57.3 708 28.7 737 14.3L766 0L900 0L900 14.3C900 28.7 900 57.3 900 85.8C900 114.3 900 142.7 900 171.2C900 199.7 900 228.3 900 257C900 285.7 900 314.3 900 343C900 371.7 900 400.3 900 428.8C900 457.3 900 485.7 900 514.2C900 542.7 900 571.3 900 585.7L900 600Z" fill="#16a34a" stroke-linecap="round" stroke-linejoin="miter"></path></svg>